<?xml version="1.0" encoding="UTF-8" standalone="no"?>
<svg
   xmlns:dc="http://purl.org/dc/elements/1.1/"
   xmlns:cc="http://creativecommons.org/ns#"
   xmlns:rdf="http://www.w3.org/1999/02/22-rdf-syntax-ns#"
   xmlns:svg="http://www.w3.org/2000/svg"
   xmlns="http://www.w3.org/2000/svg"
   xmlns:sodipodi="http://sodipodi.sourceforge.net/DTD/sodipodi-0.dtd"
   xmlns:inkscape="http://www.inkscape.org/namespaces/inkscape"
   width="22"
   version="1.1"
   height="22"
   id="svg2"
   inkscape:version="0.48.4 r9939"
   sodipodi:docname="caps.svg">
  <metadata
     id="metadata15">
    <rdf:RDF>
      <cc:Work
         rdf:about="">
        <dc:format>image/svg+xml</dc:format>
        <dc:type
           rdf:resource="http://purl.org/dc/dcmitype/StillImage" />
        <dc:title></dc:title>
      </cc:Work>
    </rdf:RDF>
  </metadata>
  <sodipodi:namedview
     pagecolor="#ffffff"
     bordercolor="#666666"
     borderopacity="1"
     objecttolerance="10"
     gridtolerance="10"
     guidetolerance="10"
     inkscape:pageopacity="0"
     inkscape:pageshadow="2"
     inkscape:window-width="1201"
     inkscape:window-height="811"
     id="namedview13"
     showgrid="false"
     inkscape:zoom="10.727273"
     inkscape:cx="11"
     inkscape:cy="5.9436907"
     inkscape:window-x="249"
     inkscape:window-y="93"
     inkscape:window-maximized="0"
     inkscape:current-layer="svg2" />
  <defs
     id="defs4">
    <mask
       id="m">
      <rect
         y="0"
         x="0"
         style="fill:#fff"
         height="22"
         width="22"
         id="rect7" />
    </mask>
  </defs>
  <path
     style="fill:#3c3c3c"
     mask="url(#m)"
     d="M 3 1 C 1.892 1 1 1.892 1 3 L 1 19 C 1 20.108 1.892 21 3 21 L 19 21 C 20.108 21 21 20.108 21 19 L 21 3 C 21 1.892 20.108 1 19 1 L 3 1 z M 11.0625 5.3125 C 11.205919 5.3125138 11.336815 5.3489008 11.46875 5.40625 C 11.600695 5.4636244 11.714984 5.5587425 11.8125 5.65625 L 15.25 9.09375 C 15.341789 9.185544 15.4369 9.2998323 15.5 9.4375 C 15.557362 9.5637133 15.5625 9.6946089 15.5625 9.84375 C 15.5625 9.992909 15.557362 10.123805 15.5 10.25 C 15.442638 10.376212 15.347523 10.4905 15.25 10.59375 C 15.141004 10.697016 15.032456 10.786392 14.90625 10.84375 C 14.780048 10.895387 14.643416 10.906259 14.5 10.90625 C 14.350853 10.906258 14.194443 10.901123 14.0625 10.84375 C 13.930563 10.786393 13.816274 10.691279 13.71875 10.59375 L 12.125 9 L 12.125 16.71875 C 12.125004 16.867902 12.088624 16.998798 12.03125 17.125 C 11.973889 17.251201 11.910026 17.365494 11.8125 17.46875 C 11.714984 17.572009 11.600695 17.661386 11.46875 17.71875 C 11.336815 17.77038 11.205919 17.781251 11.0625 17.78125 C 10.919092 17.781251 10.788196 17.77038 10.65625 17.71875 C 10.524316 17.661386 10.378777 17.572009 10.28125 17.46875 C 10.183735 17.365494 10.119872 17.251206 10.0625 17.125 C 10.005141 16.998798 9.9687563 16.867902 9.96875 16.71875 L 9.96875 9 L 8.375 10.59375 C 8.2774871 10.691279 8.163199 10.786393 8.03125 10.84375 C 7.8993181 10.901123 7.774159 10.906258 7.625 10.90625 C 7.4815954 10.906258 7.3449633 10.895387 7.21875 10.84375 C 7.0925555 10.786392 6.952754 10.697016 6.84375 10.59375 C 6.7462385 10.4905 6.6823753 10.376212 6.625 10.25 C 6.5676445 10.123805 6.5312601 9.992909 6.53125 9.84375 C 6.5312601 9.6946089 6.5676445 9.5637133 6.625 9.4375 C 6.6881118 9.2998323 6.751975 9.1855443 6.84375 9.09375 L 10.28125 5.65625 C 10.39025 5.5472664 10.530052 5.457892 10.65625 5.40625 C 10.78246 5.3546282 10.919092 5.3125126 11.0625 5.3125 z "
     id="rect11" />
  <g
     transform="matrix(0,-1.258762,1.258762,0,-1.1053316,18.67178)"
     style="font-size:14px;font-style:normal;font-weight:normal;line-height:125%;letter-spacing:0px;word-spacing:0px;fill:#000000;fill-opacity:1;stroke:none;font-family:Times New Roman;-inkscape-font-specification:Sans"
     id="flowRoot3042" />
  <flowRoot
     xml:space="preserve"
     id="flowRoot3058"
     style="fill:black;stroke:none;stroke-opacity:1;stroke-width:1px;stroke-linejoin:miter;stroke-linecap:butt;fill-opacity:1;font-family:Times New Roman;font-style:normal;font-weight:normal;font-size:14px;line-height:125%;letter-spacing:0px;word-spacing:0px;-inkscape-font-specification:Sans"><flowRegion
       id="flowRegion3060"><rect
         id="rect3062"
         width="15.754237"
         height="25.542374"
         x="30.11017"
         y="-0.74576271" /></flowRegion><flowPara
       id="flowPara3064"></flowPara></flowRoot></svg>
